if (_typeface_js && _typeface_js.loadFace) _typeface_js.loadFace({"glyphs":{"S":{"x_min":50,"x_max":851,"ha":904,"o":"m 592 801 q 485 932 592 916 l 485 1112 q 842 801 842 1112 l 592 801 m 290 326 q 426 167 290 180 l 426 -15 q 50 326 50 -15 l 290 326 m 851 254 q 485 -17 851 -17 l 485 166 q 607 255 607 177 q 543 352 598 308 q 367 485 449 423 q 206 602 285 548 q 72 834 96 692 q 424 1113 72 1113 l 424 932 q 341 901 363 925 q 320 828 320 877 q 356 756 320 782 q 416 717 381 741 q 490 665 451 692 q 567 610 529 638 q 636 560 605 583 q 685 524 666 538 q 706 511 704 511 q 851 254 851 404 "},"¦":{"x_min":68,"x_max":216,"ha":277,"o":"m 68 -248 l 68 316 l 216 316 l 216 -248 l 68 -248 m 216 1180 l 216 619 l 68 619 l 68 1180 l 216 1180 "},"/":{"x_min":9.53125,"x_max":740.453125,"ha":750,"o":"m 588 1124 l 740 1124 l 163 -142 l 9 -142 l 588 1124 "},"y":{"x_min":21.8125,"x_max":722.890625,"ha":741,"o":"m 403 336 l 496 751 l 722 751 l 487 8 l 403 336 m 465 -52 q 411 -152 442 -114 q 340 -212 381 -191 q 247 -241 299 -234 q 127 -248 194 -248 q 113 -245 121 -248 l 113 -73 l 155 -73 q 271 31 271 -73 l 21 751 l 232 751 l 465 -52 "},"Ž":{"x_min":44,"x_max":763,"ha":801,"o":"m 84 1099 l 763 1099 l 763 903 l 84 903 l 84 1099 m 763 196 l 763 0 l 44 0 l 44 196 l 763 196 m 72 231 l 458 870 l 733 870 l 347 231 l 72 231 m 650 1341 l 494 1190 l 328 1190 l 171 1341 l 328 1341 l 411 1267 l 493 1341 l 650 1341 "},"Á":{"x_min":9.53125,"x_max":876.5625,"ha":882,"o":"m 602 1098 l 876 0 l 616 0 l 566 230 l 351 230 l 386 413 l 529 413 l 445 859 l 254 0 l 9 0 l 283 1098 l 602 1098 m 265 1189 l 386 1342 l 669 1342 l 428 1189 l 265 1189 "},"g":{"x_min":52,"x_max":681,"ha":744,"o":"m 681 97 q 344 -248 681 -248 q 288 -243 316 -248 q 233 -235 260 -239 l 233 -82 q 263 -88 243 -88 q 307 -88 282 -88 q 431 -60 389 -88 q 474 49 474 -32 l 474 751 l 681 751 l 681 97 m 359 187 q 426 225 401 187 l 426 92 q 291 30 380 30 q 52 304 52 30 l 52 506 q 99 698 52 636 q 253 760 147 760 q 346 750 303 760 q 426 715 389 740 l 426 587 q 363 607 394 607 q 302 591 322 607 q 282 536 282 576 l 282 289 q 285 252 282 270 q 297 219 288 234 q 321 196 306 205 q 359 187 336 187 "},"²":{"x_min":63,"x_max":432,"ha":488,"o":"m 322 795 q 209 673 223 741 l 68 673 q 205 829 107 777 q 316 960 316 889 q 262 1034 316 1034 q 196 965 196 1034 l 193 941 l 71 941 q 262 1120 71 1120 q 432 982 432 1120 q 322 795 432 852 m 424 653 l 424 561 l 63 561 l 63 653 l 424 653 "},"ë":{"x_min":60,"x_max":702.3125,"ha":758,"o":"m 702 257 q 397 -12 702 -12 l 397 147 q 475 245 475 160 l 475 266 l 702 266 l 702 257 m 397 461 l 475 461 l 475 518 q 397 605 475 597 l 397 764 q 702 509 702 764 l 702 349 l 397 349 l 397 461 m 359 461 l 359 349 l 289 349 l 289 244 q 359 146 289 158 l 359 -13 q 60 256 60 -13 l 60 511 q 359 768 60 768 l 359 603 q 289 519 289 603 l 289 461 l 359 461 m 147 995 l 327 995 l 327 842 l 147 842 l 147 995 m 426 995 l 610 995 l 610 842 l 426 842 l 426 995 "},"ƒ":{"x_min":12,"x_max":804,"ha":811,"o":"m 358 613 l 260 613 l 260 716 l 375 716 l 397 835 q 438 975 412 920 q 500 1062 464 1031 q 587 1106 537 1094 q 699 1119 636 1119 q 761 1115 737 1119 q 804 1105 784 1112 l 804 978 q 710 1001 761 1001 q 606 968 647 1001 q 551 852 564 935 l 529 716 l 648 716 l 648 613 l 510 613 l 422 77 q 381 -63 407 -8 q 317 -150 355 -118 q 229 -194 280 -182 q 115 -207 179 -207 q 12 -193 44 -207 l 12 -66 q 56 -83 35 -77 q 106 -89 78 -89 q 209 -56 168 -89 q 265 59 250 -23 l 358 613 "},"Î":{"x_min":-42.25,"x_max":437.34375,"ha":391,"o":"m 68 1099 l 323 1099 l 323 0 l 68 0 l 68 1099 m -42 1190 l 114 1341 l 280 1341 l 437 1190 l 280 1190 l 198 1263 l 115 1190 l -42 1190 "},"e":{"x_min":60,"x_max":702.3125,"ha":758,"o":"m 702 257 q 397 -12 702 -12 l 397 147 q 475 245 475 160 l 475 266 l 702 266 l 702 257 m 397 461 l 475 461 l 475 518 q 397 605 475 597 l 397 764 q 702 509 702 764 l 702 349 l 397 349 l 397 461 m 359 461 l 359 349 l 289 349 l 289 244 q 359 146 289 158 l 359 -13 q 60 256 60 -13 l 60 511 q 359 768 60 768 l 359 603 q 289 519 289 603 l 289 461 l 359 461 "},"Ã":{"x_min":9.3125,"x_max":876.421875,"ha":882,"o":"m 602 1098 l 876 0 l 616 0 l 565 230 l 351 230 l 386 413 l 529 413 l 444 859 l 254 0 l 9 0 l 283 1098 l 602 1098 m 709 1342 q 657 1223 709 1257 q 521 1189 606 1189 q 472 1195 492 1189 q 432 1209 451 1202 q 393 1223 413 1217 q 347 1230 372 1230 q 306 1221 319 1230 q 294 1189 294 1213 l 174 1189 q 220 1306 174 1271 q 338 1342 266 1342 q 402 1335 378 1342 q 444 1321 425 1329 q 481 1307 462 1313 q 529 1301 500 1301 q 572 1307 556 1301 q 589 1342 589 1313 l 709 1342 "},"J":{"x_min":27.046875,"x_max":456,"ha":519,"o":"m 27 196 l 44 196 q 165 213 126 196 q 204 266 204 230 l 204 1099 l 456 1099 l 456 313 q 145 0 456 0 l 27 0 l 27 196 "},"»":{"x_min":63,"x_max":601,"ha":683,"o":"m 308 673 l 601 456 l 601 358 l 308 142 l 308 251 l 527 406 l 308 562 l 308 673 m 63 673 l 353 456 l 353 358 l 63 142 l 63 251 l 279 406 l 63 562 l 63 673 "},"©":{"x_min":56,"x_max":1174,"ha":1212,"o":"m 587 218 q 326 456 326 218 l 326 682 q 587 901 326 901 l 587 758 q 526 683 526 751 l 526 445 q 587 361 526 366 l 587 218 m 885 452 q 624 221 885 221 l 624 361 q 658 371 645 365 q 678 392 671 377 q 687 434 685 406 q 690 508 690 462 l 885 508 l 885 452 m 885 613 l 688 613 q 688 687 688 660 q 680 730 688 715 q 659 750 673 744 q 624 755 645 755 l 624 902 q 823 845 762 902 q 885 676 885 789 l 885 613 m 1096 561 q 1057 750 1096 661 q 953 906 1019 840 q 799 1012 887 973 q 612 1051 712 1051 q 425 1012 513 1051 q 272 906 337 973 q 169 750 207 840 q 131 561 131 661 q 169 369 131 458 q 272 212 207 279 q 425 108 337 146 q 612 70 513 70 q 802 108 713 70 q 955 214 890 147 q 1058 370 1021 280 q 1096 561 1096 459 m 1174 559 q 1129 336 1174 440 q 1008 155 1085 233 q 829 33 931 77 q 612 -11 727 -11 q 397 33 498 -11 q 220 155 295 77 q 100 336 144 233 q 56 559 56 440 q 100 779 56 676 q 220 961 144 882 q 397 1084 295 1039 q 612 1130 498 1130 q 829 1084 727 1130 q 1008 961 931 1039 q 1129 779 1085 882 q 1174 559 1174 676 "},"ò":{"x_min":60,"x_max":702.3125,"ha":761,"o":"m 702 252 q 397 -13 702 -13 l 397 147 q 475 244 475 159 l 475 517 q 397 605 475 596 l 397 766 q 702 507 702 766 l 702 252 m 289 241 q 369 147 289 147 l 369 -15 q 60 255 60 -15 l 60 510 q 369 769 60 769 l 369 606 q 289 517 289 599 l 289 241 m 162 993 l 413 993 l 540 841 l 406 841 l 162 993 "},"^":{"x_min":32.671875,"x_max":705.0625,"ha":739,"o":"m 426 1099 l 705 662 l 581 662 l 368 1004 l 156 662 l 32 662 l 314 1099 l 426 1099 "},"«":{"x_min":63,"x_max":601,"ha":683,"o":"m 601 562 l 382 406 l 601 251 l 601 142 l 309 358 l 309 456 l 601 673 l 601 562 m 354 562 l 135 406 l 354 251 l 354 142 l 63 358 l 63 456 l 354 673 l 354 562 "},"D":{"x_min":68,"x_max":826,"ha":887,"o":"m 351 1099 l 479 1099 q 826 789 826 1099 l 826 313 q 477 0 826 0 l 351 0 l 351 187 l 440 187 q 540 210 509 187 q 571 284 571 234 l 571 799 q 539 885 571 859 q 437 912 507 912 l 351 912 l 351 1099 m 314 1099 l 314 0 l 68 0 l 68 1099 l 314 1099 "},"ł":{"x_min":-73,"x_max":450,"ha":363,"o":"m 68 1099 l 293 1099 l 293 0 l 68 0 l 68 1099 m 356 750 l 450 786 l 450 603 l 356 567 l 356 750 m -73 563 l 20 600 l 20 416 l -73 380 l -73 563 "},"ÿ":{"x_min":21.8125,"x_max":722.5,"ha":740,"o":"m 402 336 l 496 751 l 722 751 l 486 8 l 402 336 m 465 -52 q 411 -152 441 -114 q 340 -212 380 -191 q 246 -241 299 -234 q 127 -248 194 -248 q 113 -245 121 -248 l 113 -73 l 154 -73 q 270 31 270 -73 l 21 751 l 232 751 l 465 -52 m 137 994 l 317 994 l 317 841 l 137 841 l 137 994 m 416 994 l 600 994 l 600 841 l 416 841 l 416 994 "},"Ł":{"x_min":68,"x_max":649,"ha":672,"o":"m 316 1099 l 316 0 l 68 0 l 68 1099 l 316 1099 m 649 0 l 363 0 l 363 185 l 649 185 l 649 0 m 355 663 l 559 745 l 559 560 l 355 480 l 355 663 "},"í":{"x_min":68,"x_max":475.46875,"ha":358,"o":"m 68 751 l 289 751 l 289 0 l 68 0 l 68 751 m 70 841 l 192 994 l 475 994 l 234 841 l 70 841 "},"w":{"x_min":24.5,"x_max":1087.53125,"ha":1109,"o":"m 792 353 l 877 751 l 1087 751 l 882 37 l 792 353 m 240 751 l 416 0 l 254 0 l 24 751 l 240 751 m 371 362 l 476 751 l 639 751 l 857 0 l 687 0 l 559 496 l 446 37 l 371 362 "},"$":{"x_min":34,"x_max":626,"ha":661,"o":"m 435 764 q 396 851 435 827 l 396 1005 q 621 764 621 980 l 435 764 m 212 401 q 273 288 212 310 l 273 135 q 34 401 34 164 l 212 401 m 307 37 l 307 1100 l 359 1100 l 359 37 l 307 37 m 53 793 q 274 1005 53 984 l 274 858 q 241 831 250 848 q 233 790 233 813 q 274 723 233 752 l 274 521 l 152 611 q 80 687 107 642 q 53 793 53 733 m 396 632 q 496 559 453 592 q 568 493 538 526 q 611 424 597 461 q 626 342 626 388 q 396 144 626 144 l 396 284 q 446 345 446 298 q 432 400 446 378 q 396 432 419 421 l 396 632 "},"\\":{"x_min":9.53125,"x_max":740.453125,"ha":750,"o":"m 740 -142 l 588 -142 l 9 1124 l 163 1124 l 740 -142 "},"Ì":{"x_min":-20.484375,"x_max":358.390625,"ha":391,"o":"m 68 1099 l 323 1099 l 323 0 l 68 0 l 68 1099 m -20 1341 l 231 1341 l 358 1190 l 224 1190 l -20 1341 "},"µ":{"x_min":65,"x_max":863.703125,"ha":875,"o":"m 699 750 l 699 249 q 786 145 699 145 q 820 145 801 145 q 863 149 840 145 l 863 -9 q 822 -15 848 -12 q 753 -22 795 -17 q 476 234 476 -22 l 476 750 l 699 750 m 295 751 l 295 231 q 386 138 295 138 q 413 140 401 138 q 436 147 425 143 l 480 32 q 341 -4 402 -4 q 295 0 319 -4 l 295 -248 l 65 -248 l 65 751 l 295 751 "},"Ç":{"x_min":61,"x_max":830,"ha":884,"o":"m 463 1123 q 830 819 830 1123 l 830 716 l 571 716 l 571 832 q 463 941 571 941 l 463 1123 m 463 155 q 571 261 571 165 l 571 413 l 830 413 l 830 293 q 463 -17 830 -17 l 463 155 m 61 827 q 413 1115 61 1115 l 413 942 q 314 832 314 929 l 314 261 q 413 155 314 169 l 413 -15 q 61 298 61 -15 l 61 827 m 451 -29 q 547 -96 514 -65 q 581 -167 581 -128 q 550 -248 581 -200 l 316 -248 q 382 -193 361 -214 q 404 -155 404 -173 q 376 -103 404 -130 q 300 -29 349 -76 l 451 -29 "},"-":{"x_min":68,"x_max":509,"ha":578,"o":"m 68 500 l 509 500 l 509 386 l 68 386 l 68 500 "},"Q":{"x_min":52,"x_max":817,"ha":876,"o":"m 52 817 q 408 1117 52 1117 l 408 943 q 305 826 305 931 l 305 273 q 408 155 305 164 l 408 -17 q 52 309 52 -17 l 52 817 m 452 155 q 562 273 562 164 l 562 826 q 451 943 562 932 l 451 1122 q 817 810 817 1122 l 817 307 q 557 -10 817 37 l 557 -21 l 811 -21 l 811 -185 l 575 -185 q 452 -50 452 -185 l 452 155 "},"M":{"x_min":68,"x_max":1098,"ha":1165,"o":"m 299 1099 l 299 0 l 68 0 l 68 1099 l 299 1099 m 1098 1099 l 1098 0 l 864 0 l 864 1099 l 1098 1099 m 518 0 l 327 611 l 327 1099 l 397 1099 l 582 344 l 763 1099 l 836 1099 l 836 603 l 637 0 l 518 0 "},"C":{"x_min":61,"x_max":830,"ha":884,"o":"m 463 1123 q 830 819 830 1123 l 830 716 l 571 716 l 571 832 q 463 941 571 941 l 463 1123 m 463 155 q 571 260 571 165 l 571 412 l 830 412 l 830 292 q 463 -18 830 -18 l 463 155 m 61 827 q 413 1115 61 1115 l 413 942 q 314 832 314 929 l 314 260 q 413 155 314 169 l 413 -15 q 61 298 61 -15 l 61 827 "},"œ":{"x_min":60,"x_max":1112,"ha":1171,"o":"m 701 256 q 701 235 701 245 q 699 217 701 226 q 771 145 709 153 l 771 -16 q 584 27 654 -16 q 503 -5 548 7 q 398 -18 459 -18 l 398 147 q 472 208 460 156 q 470 224 470 221 l 470 510 q 470 531 470 521 q 471 552 470 541 q 398 604 456 596 l 398 769 q 584 730 514 769 q 771 769 654 769 l 771 602 q 701 541 714 602 q 702 524 702 532 q 702 508 702 516 l 702 461 l 771 461 l 771 349 l 701 349 l 701 256 m 289 241 q 369 147 289 147 l 369 -15 q 60 255 60 -15 l 60 510 q 369 769 60 769 l 369 606 q 289 516 289 599 l 289 241 m 807 461 l 884 461 l 884 517 q 866 578 884 556 q 807 604 849 600 l 807 767 q 1037 703 963 767 q 1112 508 1112 639 l 1112 349 l 807 349 l 807 461 m 1112 256 q 1037 52 1112 120 q 807 -15 963 -15 l 807 147 q 884 244 884 159 l 884 265 l 1112 265 l 1112 256 "},"!":{"x_min":71,"x_max":312,"ha":383,"o":"m 71 199 l 312 199 l 312 0 l 71 0 l 71 199 m 89 1099 l 293 1099 l 293 309 l 89 309 l 89 1099 "},"ç":{"x_min":60,"x_max":702.3125,"ha":755,"o":"m 702 256 q 400 -12 702 -12 l 400 147 q 475 244 475 161 l 475 320 l 702 320 l 702 256 m 475 517 q 400 605 475 595 l 400 765 q 702 508 702 765 l 702 436 l 475 436 l 475 517 m 289 244 q 357 147 289 160 l 357 -12 q 60 255 60 -12 l 60 511 q 357 765 60 765 l 357 605 q 307 579 325 601 q 289 518 289 556 l 289 244 m 389 -29 q 485 -96 452 -65 q 519 -167 519 -128 q 488 -248 519 -200 l 254 -248 q 320 -193 299 -214 q 342 -155 342 -173 q 314 -103 342 -130 q 238 -29 287 -76 l 389 -29 "},"È":{"x_min":68,"x_max":679,"ha":718,"o":"m 355 663 l 660 663 l 660 480 l 355 480 l 355 663 m 355 1100 l 679 1100 l 679 915 l 355 915 l 355 1100 m 679 0 l 355 0 l 355 190 l 679 190 l 679 0 m 317 1099 l 317 0 l 68 0 l 68 1099 l 317 1099 m 140 1342 l 391 1342 l 518 1190 l 384 1190 l 140 1342 "},"{":{"x_min":23,"x_max":485,"ha":531,"o":"m 485 998 q 411 987 445 993 q 353 966 378 981 q 315 923 329 950 q 302 852 302 896 l 302 674 q 266 501 302 563 q 141 408 231 438 q 266 318 231 380 q 302 145 302 255 l 302 -31 q 315 -103 302 -76 q 353 -144 329 -130 q 411 -165 378 -159 q 485 -176 445 -171 l 485 -308 q 342 -301 403 -308 q 241 -266 281 -294 q 181 -183 201 -238 q 162 -33 162 -128 l 162 151 q 23 320 162 297 l 23 498 q 127 551 92 510 q 162 667 162 592 l 162 852 q 181 1003 162 948 q 241 1086 201 1059 q 342 1122 281 1114 q 485 1130 403 1130 l 485 998 "},"X":{"x_min":29.9375,"x_max":917.390625,"ha":953,"o":"m 892 1099 l 620 616 l 506 825 l 630 1099 l 892 1099 m 428 308 l 292 0 l 29 0 l 308 516 l 428 308 m 298 1099 l 917 0 l 649 0 l 32 1099 l 298 1099 "},"ô":{"x_min":60,"x_max":702.3125,"ha":761,"o":"m 702 252 q 397 -13 702 -13 l 397 147 q 475 244 475 159 l 475 517 q 397 605 475 596 l 397 766 q 702 507 702 766 l 702 252 m 289 241 q 369 147 289 147 l 369 -15 q 60 255 60 -15 l 60 510 q 369 769 60 769 l 369 606 q 289 517 289 599 l 289 241 m 141 841 l 298 993 l 464 993 l 620 841 l 464 841 l 382 914 l 299 841 l 141 841 "},"¼":{"x_min":77.4375,"x_max":1007.578125,"ha":1072,"o":"m 815 550 l 930 550 l 930 194 l 1007 194 l 1007 107 l 930 107 l 930 0 l 814 0 l 814 547 l 815 550 m 792 509 l 792 341 l 706 194 l 792 194 l 792 107 l 607 107 l 607 188 l 792 509 m 291 536 l 170 536 l 170 973 l 88 973 l 88 1048 q 210 1129 198 1048 l 291 1129 l 291 536 m 844 1124 l 983 1124 l 216 0 l 77 0 l 844 1124 "},"#":{"x_min":29.5,"x_max":701.40625,"ha":733,"o":"m 443 724 l 329 724 l 329 728 l 291 619 l 407 619 l 407 612 l 443 724 m 435 1042 l 363 827 l 475 827 l 475 821 l 548 1042 l 637 1042 l 568 827 l 701 827 l 667 724 l 534 724 l 534 728 l 497 619 l 640 619 l 606 515 l 466 515 l 466 517 l 393 299 l 301 299 l 372 515 l 261 515 l 261 517 l 186 299 l 94 299 l 166 515 l 29 515 l 64 619 l 201 619 l 201 613 l 235 724 l 89 724 l 124 827 l 270 827 l 270 821 l 344 1042 l 435 1042 "},"Ê":{"x_min":68,"x_max":679,"ha":718,"o":"m 355 663 l 660 663 l 660 480 l 355 480 l 355 663 m 355 1100 l 679 1100 l 679 915 l 355 915 l 355 1100 m 679 0 l 355 0 l 355 190 l 679 190 l 679 0 m 317 1099 l 317 0 l 68 0 l 68 1099 l 317 1099 m 119 1190 l 276 1342 l 442 1342 l 598 1190 l 442 1190 l 360 1263 l 277 1190 l 119 1190 "},")":{"x_min":31.390625,"x_max":320,"ha":346,"o":"m 34 -136 q 153 176 115 23 q 192 480 192 328 q 31 1074 192 785 l 136 1124 q 275 802 230 960 q 320 476 320 644 q 149 -167 320 163 l 34 -136 "},"Å":{"x_min":9.921875,"x_max":876.53125,"ha":882,"o":"m 308 1210 q 320 1271 308 1246 q 353 1311 333 1296 q 397 1334 373 1327 q 441 1341 420 1341 q 485 1334 461 1341 q 528 1311 509 1327 q 560 1271 547 1296 q 573 1210 573 1246 q 556 1141 573 1168 q 515 1098 540 1113 l 602 1098 l 876 0 l 616 0 l 566 230 l 351 230 l 386 413 l 529 413 l 445 859 l 254 0 l 9 0 l 283 1098 l 363 1098 q 323 1141 339 1113 q 308 1210 308 1168 m 384 1205 q 401 1167 384 1182 q 443 1152 418 1152 q 484 1167 468 1152 q 501 1205 501 1182 q 484 1246 501 1229 q 443 1263 468 1263 q 401 1246 418 1263 q 384 1205 384 1229 "},"ø":{"x_min":60,"x_max":702.3125,"ha":761,"o":"m 289 302 l 472 549 q 397 605 460 597 l 397 767 q 702 508 702 767 l 702 253 q 397 -12 702 -12 l 397 147 q 475 244 475 159 l 475 402 l 306 176 q 369 146 328 146 l 369 -15 q 60 256 60 -15 l 60 510 q 369 769 60 769 l 369 604 q 289 518 289 604 l 289 302 "},"â":{"x_min":54,"x_max":749.578125,"ha":793,"o":"m 491 539 q 423 605 491 605 q 344 587 371 605 q 317 530 317 570 l 91 530 q 424 769 91 769 q 721 541 721 769 l 721 305 q 749 0 721 51 l 525 0 q 498 47 505 22 q 491 105 491 73 l 491 539 m 54 217 q 147 405 54 335 q 445 503 240 475 l 445 357 q 324 309 363 338 q 285 244 285 280 q 345 154 285 154 q 401 156 377 154 q 445 165 425 158 l 445 23 q 314 -10 393 -10 q 54 217 54 -10 m 162 841 l 319 993 l 485 993 l 642 841 l 485 841 l 404 914 l 321 841 l 162 841 "},"}":{"x_min":48,"x_max":508,"ha":531,"o":"m 48 -176 q 120 -165 87 -171 q 178 -144 153 -159 q 216 -103 202 -130 q 230 -31 230 -77 l 230 147 q 265 319 230 257 q 389 412 300 382 q 265 502 300 440 q 230 674 230 565 l 230 852 q 216 924 230 897 q 178 966 202 951 q 120 988 153 981 q 48 998 87 994 l 48 1129 q 189 1122 129 1129 q 289 1087 249 1115 q 349 1004 329 1059 q 369 854 369 949 l 369 670 q 403 552 369 591 q 508 500 438 512 l 508 322 q 403 269 438 311 q 369 152 369 227 l 369 -31 q 349 -182 369 -127 q 289 -265 329 -237 q 189 -301 249 -294 q 48 -308 129 -308 l 48 -176 "},"Ä":{"x_min":9.921875,"x_max":877.171875,"ha":883,"o":"m 603 1098 l 877 0 l 617 0 l 566 230 l 351 230 l 387 413 l 529 413 l 445 859 l 255 0 l 9 0 l 283 1098 l 603 1098 m 210 1342 l 390 1342 l 390 1189 l 210 1189 l 210 1342 m 489 1342 l 673 1342 l 673 1189 l 489 1189 l 489 1342 "},"¸":{"x_min":67.5625,"x_max":348,"ha":378,"o":"m 218 -29 q 314 -96 281 -65 q 348 -167 348 -128 q 318 -248 348 -200 l 83 -248 q 149 -193 128 -214 q 171 -155 171 -173 q 143 -103 171 -130 q 67 -29 116 -76 l 218 -29 "},"a":{"x_min":54,"x_max":749.578125,"ha":793,"o":"m 491 539 q 423 605 491 605 q 344 587 371 605 q 317 530 317 570 l 91 530 q 424 769 91 769 q 721 541 721 769 l 721 305 q 749 0 721 51 l 525 0 q 498 47 505 22 q 491 105 491 73 l 491 539 m 54 217 q 147 405 54 335 q 445 503 240 475 l 445 357 q 324 309 363 338 q 285 244 285 280 q 345 154 285 154 q 401 156 377 154 q 445 165 425 158 l 445 23 q 314 -10 393 -10 q 54 217 54 -10 "},"=":{"x_min":68,"x_max":715,"ha":750,"o":"m 715 375 l 715 229 l 68 229 l 68 375 l 715 375 m 715 668 l 715 522 l 68 522 l 68 668 l 715 668 "},"N":{"x_min":68,"x_max":863,"ha":930,"o":"m 598 73 l 329 629 l 329 1012 l 598 452 l 598 73 m 299 1099 l 299 0 l 68 0 l 68 1099 l 299 1099 m 863 1099 l 863 0 l 628 0 l 628 1099 l 863 1099 "},"ú":{"x_min":65,"x_max":703,"ha":770,"o":"m 295 750 l 295 230 q 386 137 295 137 q 440 157 416 137 l 440 24 q 285 -18 378 -18 q 120 44 175 -18 q 65 241 65 106 l 65 750 l 295 750 m 703 0 l 477 0 l 477 751 l 703 751 l 703 0 m 209 841 l 330 994 l 613 994 l 372 841 l 209 841 "},"2":{"x_min":53,"x_max":792,"ha":855,"o":"m 53 185 l 773 185 l 773 0 l 53 0 l 53 185 m 572 470 q 351 225 378 369 l 67 225 q 169 404 103 326 q 338 538 236 483 q 508 663 454 601 q 562 799 562 724 q 454 947 562 947 q 350 916 384 947 q 317 815 317 885 l 317 758 l 73 758 q 449 1122 73 1122 q 792 847 792 1122 q 740 620 792 712 q 572 470 688 529 "},"ü":{"x_min":65,"x_max":703,"ha":770,"o":"m 295 750 l 295 230 q 386 137 295 137 q 440 157 416 137 l 440 24 q 285 -18 378 -18 q 120 44 175 -18 q 65 241 65 106 l 65 750 l 295 750 m 703 0 l 477 0 l 477 751 l 703 751 l 703 0 m 152 994 l 332 994 l 332 841 l 152 841 l 152 994 m 431 994 l 615 994 l 615 841 l 431 841 l 431 994 "},"¯":{"x_min":65,"x_max":506,"ha":578,"o":"m 65 994 l 506 994 l 506 880 l 65 880 l 65 994 "},"Z":{"x_min":44,"x_max":763,"ha":801,"o":"m 84 1099 l 763 1099 l 763 903 l 84 903 l 84 1099 m 763 196 l 763 0 l 44 0 l 44 196 l 763 196 m 72 231 l 458 870 l 733 870 l 347 231 l 72 231 "},"u":{"x_min":65,"x_max":703,"ha":770,"o":"m 295 750 l 295 230 q 386 137 295 137 q 440 157 416 137 l 440 24 q 285 -18 378 -18 q 120 44 175 -18 q 65 241 65 106 l 65 750 l 295 750 m 703 0 l 477 0 l 477 751 l 703 751 l 703 0 "},"Ó":{"x_min":61,"x_max":830,"ha":890,"o":"m 61 818 q 418 1118 61 1118 l 418 944 q 314 827 314 931 l 314 273 q 418 155 314 166 l 418 -15 q 61 309 61 -15 l 61 818 m 571 827 q 463 944 571 934 l 463 1123 q 830 810 830 1123 l 830 305 q 463 -18 830 -18 l 463 155 q 571 273 571 165 l 571 827 m 267 1189 l 388 1342 l 671 1342 l 430 1189 l 267 1189 "},"k":{"x_min":68,"x_max":758.28125,"ha":779,"o":"m 434 677 l 475 751 l 729 751 l 537 480 l 434 677 m 320 485 l 411 642 l 758 0 l 528 0 l 367 310 l 320 230 l 320 485 m 68 1116 l 293 1116 l 293 0 l 68 0 l 68 1116 "},"Ù":{"x_min":65,"x_max":830,"ha":895,"o":"m 422 -17 q 65 308 65 -17 l 65 1099 l 318 1099 l 318 273 q 422 155 318 166 l 422 -17 m 466 155 q 547 187 519 160 q 575 273 575 214 l 575 1099 l 830 1099 l 830 305 q 466 -18 830 -18 l 466 155 m 226 1341 l 478 1341 l 605 1190 l 471 1190 l 226 1341 "},"Ÿ":{"x_min":16.71875,"x_max":873.078125,"ha":884,"o":"m 873 1100 l 571 464 l 571 0 l 323 0 l 323 390 l 611 1100 l 873 1100 m 415 737 l 303 464 l 16 1100 l 272 1100 l 415 737 m 210 1343 l 390 1343 l 390 1190 l 210 1190 l 210 1343 m 489 1343 l 673 1343 l 673 1190 l 489 1190 l 489 1343 "},"€":{"x_min":9.859375,"x_max":848.25,"ha":878,"o":"m 11 600 l 41 712 l 82 712 l 82 823 q 436 1114 82 1114 l 436 942 q 337 832 337 929 l 337 712 l 569 712 l 521 600 l 11 600 m 9 386 l 43 510 l 485 510 l 432 386 l 337 386 l 337 260 q 436 155 337 169 l 436 -15 q 82 301 82 -15 l 82 386 l 9 386 m 485 158 q 591 251 591 158 l 848 251 q 485 -18 823 -18 l 485 158 m 485 1122 q 731 1095 600 1122 l 654 918 q 556 935 604 929 q 485 943 508 941 l 485 1122 "},"¢":{"x_min":61,"x_max":641,"ha":700,"o":"m 267 412 q 303 331 267 349 l 303 173 q 61 427 61 194 l 61 664 q 303 883 61 883 l 303 735 q 277 708 287 724 q 267 664 267 692 l 267 412 m 437 664 q 394 736 437 718 l 394 884 q 641 655 641 884 l 641 590 l 437 590 l 437 664 m 641 419 q 394 183 641 183 l 394 330 q 437 412 437 350 l 437 480 l 641 480 l 641 419 m 241 1099 l 457 1099 l 457 952 l 241 952 l 241 1099 m 237 130 l 452 130 l 452 0 l 237 0 l 237 130 "},"Ω":{"x_min":48,"x_max":1023,"ha":1065,"o":"m 670 0 l 670 194 q 750 325 720 239 q 781 559 781 412 q 717 819 781 739 q 533 899 653 899 q 350 820 415 899 q 286 559 286 742 q 316 325 286 412 q 399 194 347 239 l 399 0 l 48 0 l 48 160 l 215 160 q 162 219 189 182 q 114 311 136 257 q 78 439 92 366 q 64 605 64 512 q 92 819 64 723 q 179 984 121 915 q 326 1090 236 1053 q 536 1128 415 1128 q 743 1090 656 1128 q 890 984 831 1053 q 977 819 948 915 q 1006 605 1006 723 q 991 438 1006 512 q 953 310 976 365 q 904 218 931 255 q 853 160 877 180 l 1023 160 l 1023 0 l 670 0 "},"ß":{"x_min":54,"x_max":761,"ha":817,"o":"m 761 319 q 681 65 761 150 q 425 -19 601 -19 l 425 162 q 536 300 536 172 q 508 442 536 396 q 419 489 480 489 l 419 661 q 487 697 465 661 q 510 812 510 733 q 424 935 510 924 l 424 1117 q 732 802 732 1117 q 623 573 732 651 q 726 476 692 537 q 761 319 761 415 m 376 935 q 288 806 288 924 l 288 -4 l 54 -4 l 54 783 q 376 1113 54 1113 l 376 935 "},"é":{"x_min":60,"x_max":702.3125,"ha":758,"o":"m 702 257 q 397 -12 702 -12 l 397 147 q 475 245 475 160 l 475 266 l 702 266 l 702 257 m 397 461 l 475 461 l 475 518 q 397 605 475 597 l 397 764 q 702 509 702 764 l 702 349 l 397 349 l 397 461 m 359 461 l 359 349 l 289 349 l 289 244 q 359 146 289 158 l 359 -13 q 60 256 60 -13 l 60 511 q 359 768 60 768 l 359 603 q 289 519 289 603 l 289 461 l 359 461 m 203 842 l 324 995 l 607 995 l 366 842 l 203 842 "},"s":{"x_min":49,"x_max":692,"ha":740,"o":"m 483 507 q 393 605 483 597 l 393 765 q 679 507 679 765 l 483 507 m 252 272 q 358 147 252 159 l 358 -17 q 49 272 49 -17 l 252 272 m 692 205 q 389 -18 692 -18 l 389 146 q 486 200 486 146 q 348 301 486 255 q 144 400 212 345 q 77 544 77 454 q 363 766 77 766 l 363 604 q 283 550 283 604 q 313 507 283 526 q 388 469 343 488 q 487 428 434 449 q 586 376 540 406 q 661 304 631 345 q 692 205 692 262 "},"B":{"x_min":68,"x_max":831,"ha":884,"o":"m 314 1099 l 314 0 l 68 0 l 68 1099 l 314 1099 m 445 654 q 532 685 503 654 q 561 777 561 717 q 533 881 561 848 q 445 915 506 915 l 359 915 l 359 1100 l 438 1100 q 814 808 814 1100 q 668 563 814 593 q 788 479 745 544 q 831 301 831 413 q 454 0 831 0 l 359 0 l 359 185 l 450 185 q 578 322 578 185 q 445 471 578 471 l 359 471 l 359 654 l 445 654 "},"?":{"x_min":33,"x_max":719,"ha":754,"o":"m 253 207 l 481 207 l 481 0 l 253 0 l 253 207 m 33 832 q 363 1117 33 1117 l 363 945 q 281 921 310 945 q 252 853 252 897 q 252 844 252 849 q 253 832 252 839 l 33 832 m 274 314 q 300 492 274 418 q 383 610 326 566 q 490 793 490 690 l 490 814 q 400 945 490 932 l 400 1114 q 719 820 719 1114 q 691 684 719 745 q 597 574 663 622 q 521 502 548 536 q 481 439 494 468 q 469 382 469 409 q 469 330 469 355 l 469 314 l 274 314 "},"H":{"x_min":68,"x_max":814,"ha":882,"o":"m 316 0 l 68 0 l 68 1099 l 316 1099 l 316 0 m 564 1099 l 814 1099 l 814 0 l 564 0 l 564 479 l 359 479 l 359 662 l 564 662 l 564 1099 "},"î":{"x_min":-57.234375,"x_max":422.375,"ha":358,"o":"m 68 751 l 289 751 l 289 0 l 68 0 l 68 751 m -57 841 l 99 993 l 265 993 l 422 841 l 265 841 l 183 914 l 100 841 l -57 841 "},"c":{"x_min":60,"x_max":702.3125,"ha":755,"o":"m 702 256 q 400 -12 702 -12 l 400 147 q 475 244 475 161 l 475 320 l 702 320 l 702 256 m 475 517 q 400 605 475 595 l 400 765 q 702 508 702 765 l 702 436 l 475 436 l 475 517 m 289 244 q 357 147 289 160 l 357 -12 q 60 255 60 -12 l 60 511 q 357 765 60 765 l 357 605 q 307 579 325 601 q 289 518 289 556 l 289 244 "},"¶":{"x_min":109.171875,"x_max":617.875,"ha":709,"o":"m 297 84 l 297 646 q 237 623 265 623 q 186 640 209 623 q 145 685 163 656 q 118 751 128 713 q 109 833 109 790 q 118 914 109 876 q 145 981 128 952 q 186 1026 163 1009 q 237 1043 209 1043 l 617 1043 l 617 878 l 543 878 l 543 84 l 497 84 l 497 894 l 351 894 l 351 84 l 297 84 "},"¥":{"x_min":32.609375,"x_max":887.375,"ha":923,"o":"m 338 385 l 628 1099 l 887 1099 l 588 464 l 588 385 l 739 385 l 739 302 l 588 302 l 588 215 l 739 215 l 739 132 l 588 132 l 588 0 l 338 0 l 338 132 l 166 132 l 166 215 l 338 215 l 338 302 l 166 302 l 166 385 l 338 385 m 431 737 l 320 464 l 32 1099 l 288 1099 l 431 737 "},"(":{"x_min":31,"x_max":319.25,"ha":345,"o":"m 202 -167 q 31 476 31 162 q 213 1124 31 809 l 319 1074 q 160 480 160 784 q 316 -136 160 177 l 202 -167 "},"U":{"x_min":65,"x_max":830,"ha":895,"o":"m 422 -17 q 65 308 65 -17 l 65 1099 l 318 1099 l 318 273 q 422 155 318 166 l 422 -17 m 466 155 q 547 187 519 160 q 575 273 575 214 l 575 1099 l 830 1099 l 830 305 q 466 -18 830 -18 l 466 155 "},"◊":{"x_min":69.421875,"x_max":752.703125,"ha":830,"o":"m 245 612 l 69 612 l 333 1113 l 499 1113 l 752 612 l 581 612 l 415 918 l 245 612 m 333 0 l 69 501 l 245 501 l 415 192 l 581 501 l 752 501 l 499 0 l 333 0 "},"Ñ":{"x_min":68,"x_max":863,"ha":930,"o":"m 598 73 l 329 629 l 329 1012 l 598 452 l 598 73 m 299 1099 l 299 0 l 68 0 l 68 1099 l 299 1099 m 863 1099 l 863 0 l 628 0 l 628 1099 l 863 1099 m 734 1342 q 682 1223 734 1257 q 545 1190 631 1190 q 496 1196 517 1190 q 457 1210 476 1202 q 418 1223 438 1217 q 371 1230 397 1230 q 331 1221 344 1230 q 319 1190 319 1213 l 199 1190 q 245 1306 199 1271 q 363 1342 291 1342 q 426 1335 403 1342 q 468 1322 450 1329 q 506 1308 487 1314 q 554 1302 525 1302 q 597 1308 581 1302 q 614 1342 614 1314 l 734 1342 "},"F":{"x_min":68,"x_max":679,"ha":705,"o":"m 355 663 l 660 663 l 660 480 l 355 480 l 355 663 m 355 1100 l 679 1100 l 679 915 l 355 915 l 355 1100 m 317 1099 l 317 0 l 68 0 l 68 1099 l 317 1099 "},":":{"x_min":68,"x_max":284,"ha":333,"o":"m 68 192 l 284 192 l 284 0 l 68 0 l 68 192 m 68 483 l 284 483 l 284 291 l 68 291 l 68 483 "},"Û":{"x_min":65,"x_max":830,"ha":895,"o":"m 422 -17 q 65 308 65 -17 l 65 1099 l 318 1099 l 318 273 q 422 155 318 166 l 422 -17 m 466 155 q 547 187 519 160 q 575 273 575 214 l 575 1099 l 830 1099 l 830 305 q 466 -18 830 -18 l 466 155 m 206 1190 l 362 1341 l 528 1341 l 685 1190 l 528 1190 l 447 1263 l 364 1190 l 206 1190 "},"*":{"x_min":31.3125,"x_max":522.671875,"ha":553,"o":"m 149 599 l 243 796 l 49 734 l 31 834 l 234 834 l 77 985 l 145 1047 l 268 872 l 311 1079 l 397 1046 l 313 857 l 506 918 l 522 819 l 319 819 l 469 660 l 400 602 l 285 778 l 234 569 l 149 599 "},"°":{"x_min":50,"x_max":530,"ha":563,"o":"m 140 880 q 152 823 140 849 q 185 777 164 797 q 234 747 206 758 q 295 736 262 736 q 355 747 327 736 q 404 777 383 758 q 437 823 425 797 q 450 880 450 849 q 437 935 450 909 q 404 982 425 962 q 355 1014 383 1002 q 295 1026 327 1026 q 234 1014 262 1026 q 185 982 206 1002 q 152 935 164 962 q 140 880 140 909 m 50 885 q 73 994 50 949 q 133 1068 97 1039 q 211 1109 169 1096 q 292 1123 253 1123 q 370 1109 328 1123 q 447 1068 411 1096 q 506 994 482 1039 q 530 885 530 949 q 506 774 530 820 q 447 699 482 729 q 370 656 411 670 q 292 643 328 643 q 209 656 252 643 q 131 698 166 669 q 73 773 96 727 q 50 885 50 819 "},"V":{"x_min":9.53125,"x_max":856.140625,"ha":859,"o":"m 856 1099 l 562 0 l 465 401 l 608 1099 l 856 1099 m 511 0 l 307 0 l 9 1099 l 255 1099 l 511 0 "},"å":{"x_min":54,"x_max":749.578125,"ha":793,"o":"m 270 862 q 282 921 270 896 q 315 962 295 946 q 358 986 335 978 q 403 994 381 994 q 448 986 424 994 q 490 962 471 978 q 523 921 510 946 q 536 862 536 896 q 525 805 536 830 q 496 764 514 781 q 721 541 721 739 l 721 305 q 749 0 721 51 l 525 0 q 498 47 506 22 q 491 105 491 73 l 491 539 q 423 605 491 605 q 344 587 371 605 q 317 530 317 570 l 91 530 q 311 760 91 724 q 270 862 270 793 m 54 217 q 147 405 54 335 q 445 503 240 475 l 445 357 q 323 309 362 338 q 285 244 285 280 q 345 154 285 154 q 401 156 377 154 q 445 165 425 158 l 445 23 q 314 -10 393 -10 q 54 217 54 -10 m 345 859 q 362 820 345 835 q 405 805 380 805 q 447 820 429 805 q 465 859 465 835 q 447 897 465 882 q 405 913 429 913 q 362 897 380 913 q 345 859 345 882 "},"0":{"x_min":61,"x_max":830,"ha":890,"o":"m 61 818 q 418 1118 61 1118 l 418 944 q 314 827 314 931 l 314 273 q 418 155 314 166 l 418 -15 q 61 309 61 -15 l 61 818 m 571 827 q 463 944 571 934 l 463 1123 q 830 810 830 1123 l 830 305 q 463 -18 830 -18 l 463 155 q 571 273 571 165 l 571 827 "},"¾":{"x_min":23,"x_max":1008.21875,"ha":1064,"o":"m 190 1029 q 144 978 144 1024 l 144 952 l 28 952 q 190 1117 28 1117 l 190 1029 m 141 732 q 192 642 141 642 l 192 555 q 23 732 23 555 l 141 732 m 380 717 q 212 552 380 552 l 212 640 q 267 708 267 646 q 245 779 267 757 q 176 801 223 801 l 144 801 l 144 891 l 176 891 q 255 965 255 891 q 211 1029 255 1022 l 211 1119 q 365 962 365 1119 q 313 846 365 886 q 380 717 380 811 m 795 509 l 795 341 l 710 194 l 795 194 l 795 107 l 607 107 l 607 188 l 795 509 m 932 547 l 932 194 l 1008 194 l 1008 107 l 932 107 l 932 0 l 815 0 l 815 547 l 932 547 m 843 1124 l 982 1124 l 216 0 l 77 0 l 843 1124 "},"@":{"x_min":38,"x_max":993.796875,"ha":1047,"o":"m 355 489 q 379 383 355 422 q 443 345 404 345 l 450 345 q 490 358 470 345 q 528 395 510 372 q 562 449 547 418 q 589 511 578 479 l 695 511 l 675 400 q 674 384 674 399 q 683 361 674 368 q 718 355 693 355 q 772 375 744 355 q 822 433 800 395 q 859 525 845 470 q 874 647 874 579 q 850 776 874 717 q 784 879 826 835 q 686 950 743 923 q 562 978 629 978 l 562 1099 q 732 1063 654 1099 q 867 967 811 1028 q 955 824 924 907 q 987 644 987 741 q 959 490 987 565 q 890 356 932 415 q 795 262 848 298 q 694 226 743 226 q 619 252 648 226 q 581 317 591 279 q 544 284 564 300 q 502 255 523 267 q 461 234 481 242 q 424 226 440 226 q 345 246 382 226 q 281 304 308 267 q 238 390 254 341 q 223 497 223 439 l 223 509 l 355 509 l 355 489 m 151 514 q 174 351 151 423 q 244 226 198 278 q 357 143 289 174 q 512 113 424 113 l 512 -9 q 313 30 401 -9 q 164 137 225 69 q 70 299 103 204 q 38 510 38 393 q 64 709 38 607 q 147 896 91 811 q 292 1039 204 981 q 505 1097 381 1097 l 505 978 q 361 933 427 971 q 249 834 296 895 q 176 691 202 773 q 151 514 151 610 m 600 577 q 602 592 601 584 q 603 610 603 601 q 575 716 603 677 q 502 755 547 755 q 462 740 483 755 q 421 700 440 725 q 387 644 402 675 q 365 577 372 612 l 227 577 q 267 689 239 635 q 332 784 295 743 q 412 848 368 824 q 501 873 456 873 q 638 802 582 873 l 648 855 l 762 855 l 710 577 l 600 577 m 993 225 q 823 50 920 111 q 587 -10 725 -10 l 587 112 q 737 143 672 112 q 848 225 801 174 l 993 225 "},"ö":{"x_min":60,"x_max":702.3125,"ha":761,"o":"m 702 252 q 397 -13 702 -13 l 397 147 q 475 244 475 159 l 475 517 q 397 605 475 596 l 397 766 q 702 507 702 766 l 702 252 m 289 241 q 369 147 289 147 l 369 -15 q 60 255 60 -15 l 60 510 q 369 769 60 769 l 369 606 q 289 517 289 599 l 289 241 m 148 994 l 328 994 l 328 841 l 148 841 l 148 994 m 427 994 l 611 994 l 611 841 l 427 841 l 427 994 "},"i":{"x_min":68,"x_max":293,"ha":358,"o":"m 68 1031 l 293 1031 l 293 853 l 68 853 l 68 1031 m 68 751 l 289 751 l 289 0 l 68 0 l 68 751 "},"Õ":{"x_min":61,"x_max":830,"ha":890,"o":"m 61 818 q 418 1118 61 1118 l 418 944 q 314 827 314 931 l 314 273 q 418 155 314 166 l 418 -15 q 61 309 61 -15 l 61 818 m 571 827 q 463 944 571 934 l 463 1123 q 830 810 830 1123 l 830 305 q 463 -18 830 -18 l 463 155 q 571 273 571 165 l 571 827 m 713 1342 q 661 1223 713 1257 q 524 1190 610 1190 q 475 1196 496 1190 q 436 1210 455 1202 q 397 1223 417 1217 q 350 1230 376 1230 q 310 1221 323 1230 q 298 1190 298 1213 l 178 1190 q 224 1306 178 1271 q 342 1342 270 1342 q 405 1335 382 1342 q 447 1322 429 1329 q 485 1308 466 1314 q 533 1302 504 1302 q 576 1308 560 1302 q 593 1342 593 1314 l 713 1342 "},"þ":{"x_min":68,"x_max":705,"ha":740,"o":"m 383 614 q 332 593 353 614 l 332 726 q 484 769 394 769 q 652 703 600 769 q 705 495 705 638 l 705 247 q 656 56 705 121 q 500 -9 607 -9 q 332 38 402 -9 l 332 167 q 390 144 359 144 q 453 160 432 144 q 475 216 475 177 l 475 519 q 383 614 475 614 m 68 1116 l 293 1116 l 293 -248 l 68 -248 l 68 1116 "},"]":{"x_min":68.03125,"x_max":297,"ha":346,"o":"m 297 -137 l 68 -137 l 68 -48 l 181 -48 l 181 1029 l 68 1029 l 68 1125 l 297 1125 l 297 -137 "},"m":{"x_min":68,"x_max":1068,"ha":1133,"o":"m 68 751 l 293 751 l 293 0 l 68 0 l 68 751 m 837 0 l 837 522 q 775 614 837 614 q 730 593 747 614 l 730 726 q 847 769 781 769 q 1010 705 953 769 q 1068 508 1068 642 l 1068 0 l 837 0 m 648 647 q 695 703 665 677 l 695 547 q 678 497 678 533 l 678 0 l 447 0 l 447 522 q 384 614 447 614 q 332 593 353 614 l 332 726 q 457 769 394 769 q 575 741 530 769 q 648 647 620 713 "},"8":{"x_min":59,"x_max":767,"ha":827,"o":"m 767 319 q 687 65 767 150 q 436 -19 607 -19 l 436 162 q 518 204 493 168 q 544 308 544 240 q 436 474 544 448 l 436 667 q 519 812 519 696 q 496 896 519 866 q 436 934 474 927 l 431 935 l 431 1116 q 741 801 741 1116 q 632 573 741 648 q 767 319 767 504 m 59 319 q 194 573 59 505 q 85 801 85 651 q 395 1116 85 1116 l 395 935 q 308 812 308 925 q 395 667 308 694 l 395 474 q 284 308 284 449 q 308 204 284 240 q 391 162 333 168 l 391 -19 q 139 66 219 -19 q 59 319 59 152 "},"ž":{"x_min":41,"x_max":628,"ha":669,"o":"m 75 196 l 354 552 l 592 552 l 316 196 l 75 196 m 71 751 l 628 751 l 628 584 l 71 584 l 71 751 m 41 168 l 628 168 l 628 0 l 41 0 l 41 168 m 583 993 l 427 841 l 261 841 l 103 993 l 261 993 l 344 918 l 426 993 l 583 993 "},"R":{"x_min":68,"x_max":827.609375,"ha":873,"o":"m 314 1099 l 314 0 l 68 0 l 68 1099 l 314 1099 m 445 654 q 532 685 503 654 q 561 777 561 717 q 533 881 561 848 q 445 915 506 915 l 359 915 l 359 1100 l 438 1100 q 814 808 814 1100 q 780 639 814 699 q 669 563 747 579 q 811 339 811 526 l 811 97 q 814 40 811 65 q 827 0 818 15 l 575 0 q 558 80 558 26 l 558 329 q 445 471 558 471 l 359 471 l 359 654 l 445 654 "},"á":{"x_min":54,"x_max":749.578125,"ha":793,"o":"m 491 539 q 423 605 491 605 q 344 587 371 605 q 317 530 317 570 l 91 530 q 424 769 91 769 q 721 541 721 769 l 721 305 q 749 0 721 51 l 525 0 q 498 47 505 22 q 491 105 491 73 l 491 539 m 54 217 q 147 405 54 335 q 445 503 240 475 l 445 357 q 324 309 363 338 q 285 244 285 280 q 345 154 285 154 q 401 156 377 154 q 445 165 425 158 l 445 23 q 314 -10 393 -10 q 54 217 54 -10 m 226 841 l 348 994 l 631 994 l 390 841 l 226 841 "},"×":{"x_min":65.328125,"x_max":601.609375,"ha":659,"o":"m 446 531 l 601 372 l 495 265 l 338 424 l 179 259 l 65 374 l 225 539 l 65 703 l 171 810 l 333 645 l 484 802 l 598 687 l 446 531 "},"o":{"x_min":60,"x_max":702.3125,"ha":761,"o":"m 702 252 q 397 -13 702 -13 l 397 147 q 475 244 475 159 l 475 517 q 397 605 475 596 l 397 766 q 702 507 702 766 l 702 252 m 289 241 q 369 147 289 147 l 369 -15 q 60 255 60 -15 l 60 510 q 369 769 60 769 l 369 606 q 289 517 289 599 l 289 241 "},"5":{"x_min":59,"x_max":752,"ha":813,"o":"m 280 287 q 398 156 280 156 l 398 -22 q 59 358 59 -22 l 280 358 l 280 287 m 438 156 q 526 291 526 169 l 526 499 q 438 588 526 580 l 438 759 q 677 691 603 759 q 752 486 752 623 l 752 266 q 438 -11 752 -11 l 438 156 m 398 588 q 271 494 294 576 l 77 494 l 77 1100 l 720 1100 l 720 915 l 284 915 l 284 692 q 333 734 304 717 q 398 756 361 750 l 398 588 "},"õ":{"x_min":60,"x_max":702.3125,"ha":761,"o":"m 702 252 q 397 -13 702 -13 l 397 147 q 475 244 475 159 l 475 517 q 397 605 475 596 l 397 766 q 702 507 702 766 l 702 252 m 289 241 q 369 147 289 147 l 369 -15 q 60 255 60 -15 l 60 510 q 369 769 60 769 l 369 606 q 289 517 289 599 l 289 241 m 649 994 q 598 875 649 909 q 461 841 547 841 q 412 847 432 841 q 373 861 392 854 q 333 875 354 869 q 287 882 313 882 q 246 873 259 882 q 234 841 234 865 l 114 841 q 160 958 114 923 q 279 994 206 994 q 342 987 318 994 q 384 973 366 981 q 421 959 402 965 q 469 953 440 953 q 512 959 496 953 q 529 994 529 965 l 649 994 "},"7":{"x_min":48,"x_max":699,"ha":722,"o":"m 48 915 l 48 1100 l 699 1100 l 699 915 l 48 915 m 451 883 l 688 883 l 407 0 l 165 0 l 451 883 "},"K":{"x_min":68,"x_max":883.75,"ha":911,"o":"m 861 1099 l 602 718 l 501 928 l 600 1099 l 861 1099 m 357 696 l 469 883 l 883 0 l 618 0 l 408 459 l 357 381 l 357 696 m 68 0 l 68 1099 l 318 1099 l 318 0 l 68 0 "},",":{"x_min":59.828125,"x_max":293,"ha":338,"o":"m 140 0 l 68 0 l 68 187 l 293 187 l 293 6 l 173 -163 l 59 -163 l 140 0 "},"d":{"x_min":34,"x_max":673,"ha":741,"o":"m 448 1116 l 673 1116 l 673 0 l 448 0 l 448 1116 m 355 614 q 264 519 264 614 l 264 215 q 285 159 264 176 q 347 143 307 143 q 408 166 376 143 l 408 37 q 236 -10 337 -10 q 84 55 134 -10 q 34 246 34 120 l 34 495 q 85 701 34 634 q 247 769 137 769 q 408 726 345 769 l 408 593 q 355 614 385 614 "},"¨":{"x_min":68,"x_max":531,"ha":600,"o":"m 68 994 l 248 994 l 248 841 l 68 841 l 68 994 m 347 994 l 531 994 l 531 841 l 347 841 l 347 994 "},"Ô":{"x_min":61,"x_max":830,"ha":890,"o":"m 61 818 q 418 1118 61 1118 l 418 944 q 314 827 314 931 l 314 273 q 418 155 314 166 l 418 -15 q 61 309 61 -15 l 61 818 m 571 827 q 463 944 571 934 l 463 1123 q 830 810 830 1123 l 830 305 q 463 -18 830 -18 l 463 155 q 571 273 571 165 l 571 827 m 203 1190 l 360 1342 l 526 1342 l 682 1190 l 526 1190 l 444 1263 l 361 1190 l 203 1190 "},"E":{"x_min":68,"x_max":679,"ha":718,"o":"m 355 663 l 660 663 l 660 480 l 355 480 l 355 663 m 355 1100 l 679 1100 l 679 915 l 355 915 l 355 1100 m 679 0 l 355 0 l 355 190 l 679 190 l 679 0 m 317 1099 l 317 0 l 68 0 l 68 1099 l 317 1099 "},"Y":{"x_min":16.75,"x_max":873.15625,"ha":884,"o":"m 873 1099 l 571 463 l 571 0 l 323 0 l 323 389 l 611 1099 l 873 1099 m 415 736 l 303 463 l 16 1099 l 272 1099 l 415 736 "},"\"":{"x_min":65,"x_max":487,"ha":550,"o":"m 305 1128 l 487 1128 l 487 931 l 457 705 l 334 705 l 305 933 l 305 1128 m 65 1128 l 250 1128 l 250 931 l 220 705 l 94 705 l 65 933 l 65 1128 "},"ê":{"x_min":60,"x_max":702.3125,"ha":758,"o":"m 702 257 q 397 -12 702 -12 l 397 147 q 475 245 475 160 l 475 266 l 702 266 l 702 257 m 397 461 l 475 461 l 475 518 q 397 605 475 597 l 397 764 q 702 509 702 764 l 702 349 l 397 349 l 397 461 m 359 461 l 359 349 l 289 349 l 289 244 q 359 146 289 158 l 359 -13 q 60 256 60 -13 l 60 511 q 359 768 60 768 l 359 603 q 289 519 289 603 l 289 461 l 359 461 m 139 842 l 295 994 l 461 994 l 617 842 l 461 842 l 379 915 l 297 842 l 139 842 "},"Ï":{"x_min":-33,"x_max":430,"ha":391,"o":"m 67 1099 l 322 1099 l 322 0 l 67 0 l 67 1099 m -33 1342 l 147 1342 l 147 1189 l -33 1189 l -33 1342 m 246 1342 l 430 1342 l 430 1189 l 246 1189 l 246 1342 "},"Â":{"x_min":9.53125,"x_max":876.5625,"ha":882,"o":"m 602 1098 l 876 0 l 616 0 l 566 230 l 351 230 l 386 413 l 529 413 l 445 859 l 254 0 l 9 0 l 283 1098 l 602 1098 m 201 1189 l 357 1341 l 524 1341 l 680 1189 l 524 1189 l 442 1262 l 359 1189 l 201 1189 "},"Í":{"x_min":21.71875,"x_max":426.453125,"ha":391,"o":"m 68 1099 l 323 1099 l 323 0 l 68 0 l 68 1099 m 21 1189 l 143 1342 l 426 1342 l 185 1189 l 21 1189 "},"´":{"x_min":70.78125,"x_max":475.03125,"ha":475,"o":"m 70 841 l 191 994 l 475 994 l 234 841 l 70 841 "},"ì":{"x_min":-36.8125,"x_max":342.078125,"ha":358,"o":"m 68 751 l 289 751 l 289 0 l 68 0 l 68 751 m -36 993 l 215 993 l 342 841 l 208 841 l -36 993 "},"±":{"x_min":95,"x_max":750,"ha":847,"o":"m 95 136 l 750 136 l 750 0 l 95 0 l 95 136 m 490 894 l 490 627 l 750 627 l 750 491 l 490 491 l 490 225 l 357 225 l 357 491 l 95 491 l 95 627 l 357 627 l 357 894 l 490 894 "},"Ú":{"x_min":65,"x_max":830,"ha":895,"o":"m 422 -17 q 65 308 65 -17 l 65 1099 l 318 1099 l 318 273 q 422 155 318 166 l 422 -17 m 466 155 q 547 187 519 160 q 575 273 575 214 l 575 1099 l 830 1099 l 830 305 q 466 -18 830 -18 l 466 155 m 271 1189 l 392 1342 l 675 1342 l 434 1189 l 271 1189 "},"|":{"x_min":68,"x_max":216,"ha":283,"o":"m 216 1180 l 216 -248 l 68 -248 l 68 1180 l 216 1180 "},"§":{"x_min":67.734375,"x_max":740,"ha":774,"o":"m 458 323 l 458 501 l 477 501 q 525 514 507 501 q 543 569 543 527 q 530 622 543 607 q 495 637 518 637 l 458 637 l 458 815 l 514 815 q 689 756 638 815 q 740 573 740 698 q 663 380 740 445 q 703 254 703 342 q 651 63 703 126 q 474 0 599 0 l 67 0 l 67 179 l 458 179 q 493 195 481 179 q 506 249 506 212 q 495 305 506 291 q 465 323 484 320 l 458 323 m 349 501 l 349 323 l 293 323 q 118 381 169 323 q 68 562 68 440 q 145 752 68 687 q 105 882 105 803 q 156 1077 105 1014 q 333 1141 208 1141 l 714 1141 l 714 962 l 349 962 q 314 945 326 962 q 302 886 302 928 q 334 816 302 821 l 349 816 l 349 637 l 312 637 q 277 620 289 637 q 265 566 265 603 q 277 514 265 527 q 312 501 289 501 l 349 501 "},"Ý":{"x_min":16.75,"x_max":873.15625,"ha":884,"o":"m 873 1100 l 571 464 l 571 0 l 323 0 l 323 390 l 611 1100 l 873 1100 m 415 737 l 303 464 l 16 1100 l 272 1100 l 415 737 m 265 1190 l 387 1343 l 670 1343 l 429 1190 l 265 1190 "},"b":{"x_min":68,"x_max":705,"ha":740,"o":"m 383 614 q 332 593 353 614 l 332 726 q 484 769 394 769 q 652 703 600 769 q 705 495 705 638 l 705 246 q 656 55 705 120 q 500 -10 607 -10 q 332 37 402 -10 l 332 166 q 390 143 359 143 q 453 159 432 143 q 475 215 475 176 l 475 519 q 383 614 475 614 m 68 1116 l 293 1116 l 293 0 l 68 0 l 68 1116 "},"q":{"x_min":39,"x_max":675,"ha":743,"o":"m 359 138 q 413 158 386 138 l 413 25 q 259 -17 350 -17 q 91 48 143 -17 q 39 257 39 114 l 39 504 q 86 697 39 634 q 236 761 134 761 q 413 715 337 761 l 413 587 q 352 607 382 607 q 289 591 310 607 q 268 536 268 576 l 268 242 q 288 169 268 200 q 359 138 308 138 m 675 -248 l 452 -248 l 452 751 l 675 751 l 675 -248 "},"Ö":{"x_min":61,"x_max":830,"ha":890,"o":"m 61 818 q 418 1118 61 1118 l 418 944 q 314 827 314 931 l 314 273 q 418 155 314 166 l 418 -15 q 61 309 61 -15 l 61 818 m 571 827 q 463 944 571 934 l 463 1123 q 830 810 830 1123 l 830 305 q 463 -18 830 -18 l 463 155 q 571 273 571 165 l 571 827 m 212 1342 l 392 1342 l 392 1189 l 212 1189 l 212 1342 m 491 1342 l 675 1342 l 675 1189 l 491 1189 l 491 1342 "},"z":{"x_min":41,"x_max":628,"ha":669,"o":"m 75 196 l 354 552 l 592 552 l 316 196 l 75 196 m 71 751 l 628 751 l 628 584 l 71 584 l 71 751 m 41 168 l 628 168 l 628 0 l 41 0 l 41 168 "},"™":{"x_min":42,"x_max":1098,"ha":1158,"o":"m 450 1099 l 450 1003 l 42 1003 l 42 1099 l 450 1099 m 181 957 l 313 957 l 313 516 l 181 516 l 181 957 m 633 1099 l 633 516 l 509 516 l 509 1099 l 633 1099 m 1098 1099 l 1098 516 l 974 516 l 974 1099 l 1098 1099 m 770 516 l 668 839 l 668 1099 l 704 1099 l 804 697 l 901 1099 l 938 1099 l 938 836 l 833 516 l 770 516 "},"ã":{"x_min":54,"x_max":749.578125,"ha":793,"o":"m 491 539 q 423 605 491 605 q 344 587 371 605 q 317 530 317 570 l 91 530 q 424 769 91 769 q 721 541 721 769 l 721 305 q 749 0 721 51 l 524 0 q 498 47 505 22 q 491 105 491 73 l 491 539 m 54 217 q 147 405 54 335 q 445 503 240 475 l 445 357 q 324 309 363 338 q 285 244 285 280 q 345 154 285 154 q 401 156 377 154 q 445 165 425 158 l 445 23 q 314 -10 393 -10 q 54 217 54 -10 m 672 993 q 621 874 672 908 q 484 841 570 841 q 435 847 455 841 q 395 861 415 853 q 356 874 376 868 q 310 881 336 881 q 269 872 282 881 q 257 841 257 864 l 137 841 q 183 957 137 922 q 301 993 229 993 q 365 986 341 993 q 407 973 389 980 q 444 959 425 965 q 492 953 463 953 q 535 959 519 953 q 552 993 552 965 l 672 993 "},"æ":{"x_min":54,"x_max":1133.3125,"ha":1190,"o":"m 792 605 q 721 535 733 599 l 721 460 l 791 460 l 791 348 l 721 348 l 721 237 q 791 145 721 155 l 791 -18 l 779 -18 q 685 -5 736 -18 q 590 37 634 6 q 518 122 547 69 q 490 258 490 176 l 490 510 q 419 605 490 605 q 343 587 369 605 q 317 530 317 570 l 91 530 q 424 769 91 769 q 528 755 485 769 q 601 716 571 741 q 792 769 682 769 l 792 605 m 445 357 q 325 309 367 338 q 284 244 284 280 q 346 154 284 154 q 401 156 377 154 q 444 165 425 158 l 444 23 q 313 -10 392 -10 q 54 216 54 -10 q 147 404 54 334 q 445 503 240 475 l 445 357 m 829 460 l 906 460 l 906 517 q 888 578 906 556 q 829 605 870 600 l 829 766 q 1059 702 986 766 q 1133 507 1133 638 l 1133 348 l 829 348 l 829 460 m 1133 256 q 1059 52 1133 120 q 829 -15 986 -15 l 829 147 q 906 244 906 159 l 906 265 l 1133 265 l 1133 256 "},"®":{"x_min":39,"x_max":700,"ha":735,"o":"m 337 588 l 250 588 l 250 975 l 337 975 l 337 588 m 379 975 q 514 872 514 975 q 463 786 514 798 q 510 691 510 773 l 510 630 q 512 605 510 617 q 518 588 515 593 l 428 588 q 417 635 417 607 q 420 672 417 648 q 424 705 424 695 q 352 754 424 754 l 352 818 q 412 827 400 818 q 424 863 424 836 q 411 901 424 893 q 353 910 399 910 l 353 975 l 379 975 m 367 1051 q 264 1030 312 1051 q 180 972 216 1009 q 123 886 144 935 q 102 780 102 837 q 123 674 102 723 q 180 589 144 625 q 264 531 216 553 q 367 510 312 510 q 470 531 422 510 q 555 589 519 553 q 611 675 591 626 q 632 780 632 725 q 610 885 632 836 q 553 971 589 934 q 469 1029 517 1008 q 367 1051 421 1051 m 366 1120 q 495 1092 434 1120 q 601 1020 555 1065 q 673 912 646 974 q 700 781 700 850 q 673 652 700 713 q 601 545 646 591 q 495 473 555 500 q 366 446 434 446 q 238 473 298 446 q 134 545 179 500 q 64 652 90 591 q 39 781 39 713 q 64 912 39 850 q 134 1020 90 974 q 238 1092 179 1065 q 366 1120 298 1120 "},"É":{"x_min":68,"x_max":679,"ha":718,"o":"m 355 663 l 660 663 l 660 480 l 355 480 l 355 663 m 355 1100 l 679 1100 l 679 915 l 355 915 l 355 1100 m 679 0 l 355 0 l 355 190 l 679 190 l 679 0 m 317 1099 l 317 0 l 68 0 l 68 1099 l 317 1099 m 182 1189 l 303 1342 l 586 1342 l 345 1189 l 182 1189 "},"~":{"x_min":95,"x_max":750,"ha":847,"o":"m 95 585 q 179 636 135 622 q 267 650 223 650 q 342 643 304 650 q 419 629 380 637 q 495 614 457 620 q 572 608 533 608 q 661 620 616 608 q 750 665 706 633 l 750 529 q 661 486 706 497 q 571 475 616 475 q 495 480 533 475 q 419 494 457 486 q 343 507 380 501 q 269 513 306 513 q 180 499 224 513 q 95 450 137 486 l 95 585 "},"³":{"x_min":65,"x_max":419,"ha":468,"o":"m 229 1028 q 185 978 185 1021 l 185 951 l 68 951 q 229 1116 68 1116 l 229 1028 m 183 730 q 232 640 183 645 l 232 554 q 65 730 65 554 l 183 730 m 419 718 q 378 592 419 634 q 253 551 338 551 l 253 643 q 307 707 307 643 q 286 779 307 757 q 219 801 266 801 l 185 801 l 185 891 l 219 891 q 295 966 295 891 q 251 1028 295 1021 l 251 1119 q 407 961 407 1119 q 352 846 407 885 q 419 718 419 810 "},"¡":{"x_min":69,"x_max":307,"ha":382,"o":"m 307 750 l 69 750 l 69 946 l 307 946 l 307 750 m 291 -153 l 87 -153 l 87 635 l 291 635 l 291 -153 "},"[":{"x_min":68,"x_max":296.609375,"ha":346,"o":"m 68 1125 l 296 1125 l 296 1029 l 185 1029 l 185 -48 l 296 -48 l 296 -137 l 68 -137 l 68 1125 "},"L":{"x_min":68,"x_max":649,"ha":672,"o":"m 316 1099 l 316 0 l 68 0 l 68 1099 l 316 1099 m 649 0 l 363 0 l 363 185 l 649 185 l 649 0 "}," ":{"x_min":0,"x_max":0,"ha":460},"%":{"x_min":52,"x_max":1126,"ha":1176,"o":"m 950 363 q 936 390 950 379 q 901 405 922 402 l 901 536 q 988 523 947 536 q 1059 486 1029 510 q 1108 426 1090 463 q 1126 341 1126 390 l 1126 185 q 1068 32 1126 84 q 901 -19 1011 -19 l 901 107 q 950 158 950 117 l 950 363 m 52 927 q 107 1067 52 1016 q 279 1119 163 1119 l 279 989 q 239 977 254 987 q 225 952 225 967 l 225 744 q 239 712 225 725 q 279 694 254 700 l 279 567 q 52 770 52 567 l 52 927 m 368 952 q 319 989 368 983 l 319 1122 q 409 1107 367 1122 q 481 1068 450 1093 q 529 1007 512 1043 q 546 922 546 970 l 546 766 q 319 567 546 567 l 319 694 q 368 744 368 700 l 368 952 m 698 489 q 861 533 759 533 l 861 405 q 820 391 835 402 q 806 365 806 380 l 806 158 q 820 125 806 139 q 861 107 835 111 l 861 -18 q 630 187 630 -18 l 630 344 q 698 489 630 440 m 882 1100 l 1029 1100 l 279 0 l 132 0 l 882 1100 "},"P":{"x_min":68,"x_max":814,"ha":837,"o":"m 314 1099 l 314 0 l 68 0 l 68 1099 l 314 1099 m 445 654 q 532 685 503 654 q 561 777 561 717 q 533 881 561 848 q 445 915 506 915 l 359 915 l 359 1100 l 438 1100 q 814 808 814 1100 q 724 551 814 632 q 445 471 635 471 l 359 471 l 359 654 l 445 654 "},"À":{"x_min":9.53125,"x_max":876.5625,"ha":882,"o":"m 602 1098 l 876 0 l 616 0 l 566 230 l 351 230 l 386 413 l 529 413 l 445 859 l 254 0 l 9 0 l 283 1098 l 602 1098 m 221 1341 l 473 1341 l 600 1189 l 466 1189 l 221 1341 "},"_":{"x_min":-3,"x_max":895,"ha":883,"o":"m 895 -166 l 895 -298 l -3 -298 l -3 -166 l 895 -166 "},"ñ":{"x_min":68,"x_max":706,"ha":771,"o":"m 475 0 l 475 519 q 383 614 475 614 q 332 593 353 614 l 332 726 q 484 769 394 769 q 650 707 594 769 q 706 508 706 646 l 706 0 l 475 0 m 68 751 l 293 751 l 293 0 l 68 0 l 68 751 m 655 994 q 603 875 655 909 q 466 842 552 842 q 417 848 438 842 q 378 862 397 854 q 338 875 359 869 q 292 882 318 882 q 252 873 265 882 q 240 842 240 865 l 120 842 q 166 958 120 923 q 284 994 212 994 q 347 987 323 994 q 389 974 371 981 q 427 960 408 966 q 475 954 446 954 q 518 960 502 954 q 535 994 535 966 l 655 994 "},"+":{"x_min":24,"x_max":632,"ha":658,"o":"m 413 616 l 632 616 l 632 465 l 413 465 l 413 230 l 252 230 l 252 465 l 24 465 l 24 616 l 252 616 l 252 837 l 413 837 l 413 616 "},"½":{"x_min":72.328125,"x_max":982.328125,"ha":1078,"o":"m 856 234 q 779 178 808 207 q 743 112 751 150 l 603 112 q 656 201 622 161 q 740 269 690 241 q 824 330 797 301 q 852 398 852 359 q 794 475 852 475 q 744 459 758 475 q 731 406 731 443 l 731 379 l 607 379 q 796 561 607 561 q 966 422 966 561 q 856 234 966 290 m 957 92 l 957 0 l 598 0 l 598 92 l 957 92 m 275 536 l 154 536 l 154 973 l 72 973 l 72 1048 q 196 1129 182 1048 l 275 1129 l 275 536 m 843 1124 l 982 1124 l 216 0 l 77 0 l 843 1124 "},"Æ":{"x_min":12.640625,"x_max":957,"ha":1022,"o":"m 938 663 l 938 480 l 678 480 l 678 663 l 938 663 m 957 1100 l 957 915 l 678 915 l 678 1100 l 957 1100 m 678 0 l 678 190 l 957 190 l 957 0 l 678 0 m 641 0 l 457 0 l 457 231 l 337 231 l 374 414 l 455 414 l 455 859 l 416 859 l 242 0 l 12 0 l 286 1099 l 641 1099 l 641 0 "},"Ë":{"x_min":68,"x_max":679,"ha":718,"o":"m 355 663 l 660 663 l 660 480 l 355 480 l 355 663 m 355 1100 l 679 1100 l 679 915 l 355 915 l 355 1100 m 679 0 l 355 0 l 355 190 l 679 190 l 679 0 m 317 1099 l 317 0 l 68 0 l 68 1099 l 317 1099 m 128 1342 l 308 1342 l 308 1189 l 128 1189 l 128 1342 m 407 1342 l 591 1342 l 591 1189 l 407 1189 l 407 1342 "},"'":{"x_min":65,"x_max":250,"ha":307,"o":"m 65 1128 l 250 1128 l 250 931 l 220 705 l 94 705 l 65 933 l 65 1128 "},"Š":{"x_min":50,"x_max":851,"ha":904,"o":"m 592 801 q 485 932 592 916 l 485 1112 q 842 801 842 1112 l 592 801 m 290 326 q 426 167 290 180 l 426 -15 q 50 326 50 -15 l 290 326 m 851 254 q 485 -17 851 -17 l 485 166 q 607 255 607 177 q 543 352 598 308 q 367 485 449 423 q 206 602 285 548 q 72 834 96 692 q 424 1113 72 1113 l 424 932 q 341 901 363 925 q 320 828 320 877 q 356 756 320 782 q 416 717 381 741 q 490 665 451 692 q 567 610 529 638 q 636 560 605 583 q 685 524 666 538 q 706 511 704 511 q 851 254 851 404 m 700 1342 l 545 1190 l 379 1190 l 221 1342 l 379 1342 l 462 1267 l 544 1342 l 700 1342 "},"ª":{"x_min":54,"x_max":521.421875,"ha":583,"o":"m 347 967 q 301 1013 347 1013 q 226 961 232 1013 l 78 961 q 302 1123 78 1123 q 501 968 501 1123 l 501 810 q 521 604 501 639 l 368 604 q 347 675 347 631 l 347 967 m 54 753 q 116 878 54 832 q 315 943 179 924 l 315 846 q 236 812 262 832 q 208 768 210 792 q 248 708 208 708 q 285 709 269 708 q 315 716 301 710 l 315 620 q 227 600 284 600 q 54 753 54 600 "},"Œ":{"x_min":61,"x_max":1183,"ha":1221,"o":"m 464 155 q 569 269 569 165 l 569 831 q 464 944 569 934 l 464 1123 q 556 1117 513 1123 q 634 1099 600 1112 l 821 1099 l 821 892 q 827 853 824 873 q 830 810 830 833 l 830 308 q 827 265 830 286 q 821 224 824 244 l 821 0 l 613 0 q 544 -15 582 -9 q 464 -22 506 -22 l 464 155 m 61 818 q 418 1118 61 1118 l 418 944 q 314 827 314 931 l 314 273 q 418 155 314 166 l 418 -15 q 61 309 61 -15 l 61 818 m 1183 0 l 859 0 l 859 190 l 1183 190 l 1183 0 m 859 1100 l 1183 1100 l 1183 915 l 859 915 l 859 1100 m 859 664 l 1165 664 l 1165 481 l 859 481 l 859 664 "},"ð":{"x_min":63,"x_max":809,"ha":868,"o":"m 77 967 q 195 1086 113 1050 q 410 1122 278 1122 l 410 939 q 272 849 333 931 l 77 967 m 567 455 q 511 505 549 491 q 407 519 472 519 q 308 439 308 519 l 308 267 q 419 161 308 161 l 419 -17 q 63 288 63 -17 l 63 455 q 133 634 63 578 q 353 691 204 691 q 564 618 475 691 l 564 842 q 449 937 564 937 l 449 1119 q 809 841 809 1119 l 809 297 q 722 55 809 132 q 459 -20 636 -20 l 459 158 q 567 265 567 170 l 567 455 "},"T":{"x_min":23,"x_max":791,"ha":807,"o":"m 791 1100 l 791 915 l 23 915 l 23 1100 l 791 1100 m 281 872 l 529 872 l 529 0 l 281 0 l 281 872 "},"š":{"x_min":49,"x_max":692,"ha":740,"o":"m 483 507 q 393 605 483 597 l 393 765 q 679 507 679 765 l 483 507 m 252 272 q 358 147 252 159 l 358 -17 q 49 272 49 -17 l 252 272 m 692 205 q 389 -18 692 -18 l 389 146 q 486 200 486 146 q 348 301 486 255 q 144 400 212 345 q 77 544 77 454 q 363 766 77 766 l 363 604 q 283 550 283 604 q 313 507 283 526 q 388 469 343 488 q 487 428 434 449 q 586 376 540 406 q 661 304 631 345 q 692 205 692 262 m 621 994 l 466 841 l 300 841 l 142 994 l 300 994 l 383 918 l 465 994 l 621 994 "},"Þ":{"x_min":68,"x_max":653,"ha":709,"o":"m 653 394 q 348 132 653 132 l 348 290 q 427 387 427 304 l 427 662 q 348 749 427 741 l 348 911 q 653 651 653 911 l 653 394 m 68 1099 l 293 1099 l 293 0 l 68 0 l 68 1099 "},"j":{"x_min":-101.96875,"x_max":282,"ha":345,"o":"m 60 1033 l 282 1033 l 282 855 l 60 855 l 60 1033 m 282 1 q 23 -248 282 -248 q -42 -243 -10 -248 q -101 -235 -73 -239 l -101 -76 q -76 -83 -87 -83 q -54 -83 -65 -83 q 31 -65 2 -83 q 60 4 60 -48 l 60 751 l 282 751 l 282 1 "},"1":{"x_min":15.9375,"x_max":428,"ha":496,"o":"m 15 952 q 191 985 131 952 q 266 1099 251 1019 l 428 1099 l 428 0 l 182 0 l 182 815 l 15 815 l 15 952 "},"ı":{"x_min":68,"x_max":289,"ha":358,"o":"m 68 751 l 289 751 l 289 0 l 68 0 l 68 751 "},"ä":{"x_min":54,"x_max":749.578125,"ha":793,"o":"m 491 539 q 423 605 491 605 q 344 587 371 605 q 317 530 317 570 l 91 530 q 424 769 91 769 q 721 541 721 769 l 721 305 q 749 0 721 51 l 525 0 q 498 47 505 22 q 491 105 491 73 l 491 539 m 54 217 q 147 405 54 335 q 445 503 240 475 l 445 357 q 324 309 363 338 q 285 244 285 280 q 345 154 285 154 q 401 156 377 154 q 445 165 425 158 l 445 23 q 314 -10 393 -10 q 54 217 54 -10 m 171 994 l 351 994 l 351 841 l 171 841 l 171 994 m 450 994 l 634 994 l 634 841 l 450 841 l 450 994 "},"<":{"x_min":12,"x_max":407,"ha":455,"o":"m 407 713 l 111 499 l 407 290 l 407 142 l 12 435 l 12 567 l 407 862 l 407 713 "},"£":{"x_min":39,"x_max":699,"ha":734,"o":"m 39 122 l 166 122 l 166 802 q 410 1069 166 1069 l 616 1069 l 616 911 l 466 911 q 409 883 429 911 q 389 802 389 855 l 389 122 l 699 122 l 699 0 l 39 0 l 39 122 m 427 751 l 530 751 l 530 577 l 427 577 l 427 751 m 129 751 l 129 577 l 49 577 l 49 751 l 129 751 "},"¹":{"x_min":72.328125,"x_max":275,"ha":358,"o":"m 275 536 l 154 536 l 154 973 l 72 973 l 72 1048 q 196 1129 182 1048 l 275 1129 l 275 536 "},"t":{"x_min":12,"x_max":514.0625,"ha":526,"o":"m 100 751 l 100 577 l 12 577 l 12 751 l 100 751 m 382 751 l 476 751 l 476 577 l 382 577 l 382 751 m 348 979 l 348 248 q 437 145 348 145 q 471 145 452 145 q 514 149 490 145 l 514 -9 q 471 -15 499 -12 q 406 -22 444 -17 q 127 233 127 -22 l 127 979 l 348 979 "},"¬":{"x_min":67.015625,"x_max":790,"ha":891,"o":"m 670 0 l 670 458 l 67 458 l 67 577 l 790 577 l 790 0 l 670 0 "},"ù":{"x_min":65,"x_max":703,"ha":770,"o":"m 295 750 l 295 230 q 386 137 295 137 q 440 157 416 137 l 440 24 q 285 -18 378 -18 q 120 44 175 -18 q 65 241 65 106 l 65 750 l 295 750 m 703 0 l 477 0 l 477 751 l 703 751 l 703 0 m 165 993 l 417 993 l 543 841 l 410 841 l 165 993 "},"W":{"x_min":12.25,"x_max":1252.21875,"ha":1266,"o":"m 907 550 l 1012 1099 l 1252 1099 l 1009 111 l 907 550 m 455 0 l 274 0 l 12 1099 l 251 1099 l 455 0 m 736 1099 l 980 0 l 786 0 l 631 763 l 488 92 l 404 545 l 526 1099 l 736 1099 "},"ï":{"x_min":-49,"x_max":414,"ha":358,"o":"m 68 751 l 289 751 l 289 0 l 68 0 l 68 751 m -49 994 l 131 994 l 131 841 l -49 841 l -49 994 m 230 994 l 414 994 l 414 841 l 230 841 l 230 994 "},">":{"x_min":68,"x_max":464,"ha":475,"o":"m 68 291 l 363 503 l 68 713 l 68 860 l 464 567 l 464 435 l 68 142 l 68 291 "},"v":{"x_min":13.609375,"x_max":713.21875,"ha":735,"o":"m 386 390 l 490 751 l 713 751 l 495 70 l 386 390 m 223 751 l 473 0 l 274 0 l 13 751 l 223 751 "},"û":{"x_min":65,"x_max":703,"ha":770,"o":"m 295 750 l 295 230 q 386 137 295 137 q 440 157 416 137 l 440 24 q 285 -18 378 -18 q 120 44 175 -18 q 65 241 65 106 l 65 750 l 295 750 m 703 0 l 477 0 l 477 751 l 703 751 l 703 0 m 145 841 l 301 993 l 467 993 l 624 841 l 467 841 l 386 914 l 303 841 l 145 841 "},"Ò":{"x_min":61,"x_max":830,"ha":890,"o":"m 61 818 q 418 1118 61 1118 l 418 944 q 314 827 314 931 l 314 273 q 418 155 314 166 l 418 -15 q 61 309 61 -15 l 61 818 m 571 827 q 463 944 571 934 l 463 1123 q 830 810 830 1123 l 830 305 q 463 -18 830 -18 l 463 155 q 571 273 571 165 l 571 827 m 224 1342 l 475 1342 l 602 1190 l 468 1190 l 224 1342 "},"&":{"x_min":52,"x_max":971,"ha":1009,"o":"m 706 396 q 736 450 725 416 q 754 534 746 484 l 971 534 q 864 269 971 407 l 706 396 m 655 66 q 397 -24 550 -24 q 135 50 218 -24 q 52 288 52 124 q 216 571 52 416 l 332 416 q 278 312 278 370 q 414 179 278 179 q 516 206 464 179 l 655 66 m 441 736 q 527 887 527 800 q 504 954 527 930 q 434 978 482 978 q 359 954 385 978 q 334 887 334 930 q 376 758 334 839 q 497 579 418 676 q 687 374 576 481 q 938 166 799 267 l 867 -24 q 595 176 755 24 q 235 601 435 328 q 134 879 134 715 q 205 1063 134 1005 q 429 1122 276 1122 q 655 1065 581 1122 q 730 882 730 1008 q 684 728 730 801 q 540 579 638 654 l 441 736 "},"Ð":{"x_min":39,"x_max":882,"ha":945,"o":"m 407 1099 l 538 1099 q 882 789 882 1099 l 882 313 q 535 0 882 0 l 407 0 l 407 187 l 498 187 q 597 210 567 187 q 627 284 627 234 l 627 799 q 593 885 627 859 q 493 912 560 912 l 407 912 l 407 1099 m 39 589 l 123 589 l 123 1099 l 371 1099 l 371 589 l 479 589 l 479 475 l 371 475 l 371 0 l 123 0 l 123 475 l 39 475 l 39 589 "},"I":{"x_min":68,"x_max":323,"ha":391,"o":"m 68 1099 l 323 1099 l 323 0 l 68 0 l 68 1099 "},"G":{"x_min":61,"x_max":812,"ha":876,"o":"m 453 1125 q 812 820 812 1125 l 812 720 l 571 720 l 571 833 q 453 943 571 943 l 453 1125 m 453 157 q 571 264 571 157 l 571 415 q 513 485 571 485 l 433 485 l 433 650 l 812 650 l 812 0 l 697 0 l 643 79 q 464 -19 587 -19 l 453 -19 l 453 157 m 61 823 q 414 1123 61 1123 l 414 944 q 314 833 314 931 l 314 265 q 414 155 314 166 l 414 -18 q 145 58 229 -18 q 61 302 61 134 l 61 823 "},"`":{"x_min":-9.53125,"x_max":368.859375,"ha":438,"o":"m -9 994 l 242 994 l 368 841 l 235 841 l -9 994 "},"·":{"x_min":68,"x_max":308,"ha":376,"o":"m 68 638 l 308 638 l 308 466 l 68 466 l 68 638 "},"r":{"x_min":68,"x_max":512,"ha":539,"o":"m 327 681 q 497 758 385 758 l 512 758 l 512 567 q 474 577 492 574 q 438 580 456 580 q 327 524 363 580 l 327 681 m 68 751 l 293 751 l 293 0 l 68 0 l 68 751 "},"¿":{"x_min":33,"x_max":720,"ha":754,"o":"m 498 751 l 271 751 l 271 955 l 498 955 l 498 751 m 720 122 q 388 -164 720 -164 l 388 11 q 473 40 449 11 q 498 122 498 69 l 720 122 m 478 639 q 451 459 478 531 q 367 344 424 387 q 289 258 318 306 q 260 142 260 209 q 351 9 260 22 l 351 -161 q 33 134 33 -161 q 155 380 33 280 q 251 481 216 428 q 286 580 286 534 l 286 639 l 478 639 "},"ý":{"x_min":21.8125,"x_max":722.890625,"ha":741,"o":"m 403 336 l 496 751 l 722 751 l 487 8 l 403 336 m 465 -52 q 411 -152 442 -114 q 340 -212 381 -191 q 247 -241 299 -234 q 127 -248 194 -248 q 113 -245 121 -248 l 113 -73 l 155 -73 q 271 31 271 -73 l 21 751 l 232 751 l 465 -52 m 193 841 l 314 994 l 597 994 l 356 841 l 193 841 "},"x":{"x_min":38.109375,"x_max":759.5,"ha":795,"o":"m 426 592 l 515 751 l 751 751 l 537 413 l 426 592 m 255 363 l 374 186 l 261 0 l 38 0 l 255 363 m 283 751 l 759 0 l 534 0 l 51 751 l 283 751 "},"è":{"x_min":60,"x_max":702.3125,"ha":758,"o":"m 702 257 q 397 -12 702 -12 l 397 147 q 475 245 475 160 l 475 266 l 702 266 l 702 257 m 397 461 l 475 461 l 475 518 q 397 605 475 597 l 397 764 q 702 509 702 764 l 702 349 l 397 349 l 397 461 m 359 461 l 359 349 l 289 349 l 289 244 q 359 146 289 158 l 359 -13 q 60 256 60 -13 l 60 511 q 359 768 60 768 l 359 603 q 289 519 289 603 l 289 461 l 359 461 m 160 994 l 412 994 l 538 842 l 405 842 l 160 994 "},"º":{"x_min":60,"x_max":531,"ha":605,"o":"m 531 765 q 307 572 531 572 l 307 687 q 365 757 365 696 l 365 960 q 307 1025 365 1017 l 307 1144 q 531 954 531 1144 l 531 765 m 227 756 q 241 705 227 724 q 286 687 255 687 l 286 569 q 60 768 60 569 l 60 955 q 286 1145 60 1145 l 286 1024 q 243 1007 259 1024 q 227 959 227 991 l 227 756 "},"Ø":{"x_min":61,"x_max":830,"ha":890,"o":"m 61 818 q 418 1118 61 1118 l 418 944 q 314 827 314 931 l 314 404 l 571 827 q 464 944 571 934 l 464 1123 q 830 810 830 1123 l 830 305 q 464 -18 830 -18 l 464 155 q 571 273 571 165 l 571 670 l 315 250 q 418 155 327 165 l 418 -15 q 61 309 61 -15 l 61 818 "},"÷":{"x_min":68,"x_max":509,"ha":578,"o":"m 68 611 l 509 611 l 509 494 l 68 494 l 68 611 m 164 393 l 404 393 l 404 218 l 164 218 l 164 393 m 171 875 l 408 875 l 408 703 l 171 703 l 171 875 "},"h":{"x_min":68,"x_max":706,"ha":741,"o":"m 475 0 l 475 508 q 383 614 475 614 q 332 593 353 614 l 332 726 q 484 769 394 769 q 650 707 594 769 q 706 508 706 646 l 706 0 l 475 0 m 68 1116 l 293 1116 l 293 0 l 68 0 l 68 1116 "},".":{"x_min":68,"x_max":308,"ha":376,"o":"m 68 174 l 308 174 l 308 0 l 68 0 l 68 174 "},";":{"x_min":58.203125,"x_max":283,"ha":335,"o":"m 65 490 l 283 490 l 283 297 l 65 297 l 65 490 m 139 0 l 65 0 l 65 196 l 283 196 l 283 6 l 171 -169 l 58 -169 l 139 0 "},"f":{"x_min":12,"x_max":495,"ha":511,"o":"m 131 849 q 374 1116 131 1116 l 491 1116 l 491 955 l 455 955 q 442 955 448 955 q 428 955 436 955 q 354 849 354 955 l 354 0 l 131 0 l 131 849 m 390 751 l 495 751 l 495 577 l 390 577 l 390 751 m 92 751 l 92 577 l 12 577 l 12 751 l 92 751 "},"A":{"x_min":9.53125,"x_max":876.5625,"ha":882,"o":"m 602 1098 l 876 0 l 616 0 l 566 230 l 351 230 l 386 413 l 529 413 l 445 859 l 254 0 l 9 0 l 283 1098 l 602 1098 "},"6":{"x_min":61,"x_max":807,"ha":867,"o":"m 556 846 q 533 911 556 888 q 460 939 511 934 l 460 1121 q 719 1049 637 1121 q 801 832 801 977 l 801 773 l 556 773 l 556 846 m 306 265 q 331 191 306 217 q 413 158 356 165 l 413 -20 q 147 55 233 -20 q 61 297 61 132 l 61 841 q 423 1119 61 1119 l 423 937 q 306 842 306 937 l 306 618 q 518 691 393 691 q 736 634 666 691 q 807 455 807 578 l 807 288 q 450 -17 807 -17 l 450 161 q 562 267 562 161 l 562 439 q 463 519 562 519 q 359 505 398 519 q 306 455 320 491 l 306 265 "},"O":{"x_min":61,"x_max":830,"ha":890,"o":"m 61 818 q 418 1118 61 1118 l 418 944 q 314 827 314 931 l 314 273 q 418 155 314 166 l 418 -15 q 61 309 61 -15 l 61 818 m 571 827 q 463 944 571 934 l 463 1123 q 830 810 830 1123 l 830 305 q 463 -18 830 -18 l 463 155 q 571 273 571 165 l 571 827 "},"n":{"x_min":68,"x_max":706,"ha":771,"o":"m 475 0 l 475 519 q 383 614 475 614 q 332 593 353 614 l 332 726 q 484 769 394 769 q 650 707 594 769 q 706 508 706 646 l 706 0 l 475 0 m 68 751 l 293 751 l 293 0 l 68 0 l 68 751 "},"3":{"x_min":49,"x_max":758,"ha":817,"o":"m 377 936 q 289 835 289 925 l 289 781 l 55 781 q 377 1114 55 1114 l 377 936 m 284 340 q 384 167 284 167 l 384 -12 q 49 340 49 -12 l 284 340 m 758 319 q 678 66 758 151 q 425 -18 599 -18 l 425 162 q 536 300 536 172 q 495 436 536 392 q 366 481 455 481 l 289 481 l 289 661 l 357 661 q 471 697 433 661 q 510 812 510 733 q 424 936 510 925 l 424 1117 q 732 802 732 1117 q 623 573 732 651 q 758 319 758 503 "},"9":{"x_min":60,"x_max":806,"ha":867,"o":"m 305 254 q 407 166 305 166 l 407 -21 q 143 50 226 -21 q 60 266 60 122 l 60 328 l 305 328 l 305 254 m 562 834 q 455 941 562 929 l 455 1119 q 806 803 806 1119 l 806 259 q 444 -18 806 -18 l 444 164 q 560 259 560 164 l 560 481 q 348 408 469 408 q 130 463 201 408 q 60 643 60 518 l 60 809 q 416 1117 60 1117 l 416 941 q 305 831 305 941 l 305 660 q 404 580 305 580 q 506 595 469 580 q 562 645 544 610 l 562 834 "},"℗":{"x_min":56,"x_max":1174,"ha":1212,"o":"m 1096 561 q 1057 750 1096 661 q 953 906 1019 840 q 799 1012 887 973 q 612 1051 712 1051 q 425 1012 513 1051 q 272 906 337 973 q 169 750 207 840 q 131 561 131 661 q 169 369 131 458 q 272 212 207 279 q 425 108 337 146 q 612 70 513 70 q 802 108 713 70 q 955 214 890 147 q 1058 370 1021 280 q 1096 561 1096 459 m 1174 559 q 1129 336 1174 440 q 1008 155 1085 233 q 829 33 931 77 q 612 -11 727 -11 q 397 33 498 -11 q 220 155 295 77 q 100 336 144 233 q 56 559 56 440 q 100 779 56 676 q 220 961 144 882 q 397 1084 295 1039 q 612 1130 498 1130 q 829 1084 727 1130 q 1008 961 931 1039 q 1129 779 1085 882 q 1174 559 1174 676 m 572 909 l 572 209 l 417 209 l 417 909 l 572 909 m 655 625 q 730 705 730 625 q 655 791 730 791 l 602 791 l 602 909 l 651 909 q 891 724 891 909 q 655 510 891 510 l 602 510 l 602 625 l 655 625 "},"l":{"x_min":68,"x_max":293,"ha":362,"o":"m 68 1116 l 293 1116 l 293 0 l 68 0 l 68 1116 "},"¤":{"x_min":93.703125,"x_max":650.390625,"ha":747,"o":"m 182 465 q 174 511 174 487 l 281 511 q 294 459 284 483 q 327 436 304 436 l 425 436 q 457 458 447 436 q 472 511 468 481 l 576 511 q 572 485 575 498 q 567 459 570 472 l 650 374 l 556 277 l 485 349 q 462 342 474 345 q 435 340 450 340 l 318 340 q 261 352 285 340 l 187 277 l 93 374 l 182 465 m 567 664 q 572 643 570 653 q 576 622 575 633 l 470 622 q 456 664 466 645 q 425 683 446 683 l 327 683 q 297 664 307 683 q 282 622 286 645 l 174 622 q 182 659 174 640 l 93 749 l 187 847 l 263 767 q 318 779 292 779 l 435 779 q 459 776 448 779 q 481 770 470 773 l 556 847 l 650 749 l 567 664 "},"4":{"x_min":23,"x_max":823.078125,"ha":841,"o":"m 397 1022 l 397 682 l 225 384 l 397 384 l 397 215 l 23 215 l 23 378 l 397 1022 m 443 1099 l 672 1099 l 672 384 l 823 384 l 823 215 l 672 215 l 672 0 l 438 0 l 438 1092 l 443 1099 "},"p":{"x_min":68,"x_max":705,"ha":743,"o":"m 293 -248 l 68 -248 l 68 751 l 293 751 l 293 -248 m 383 138 q 475 230 475 138 l 475 536 q 453 591 475 576 q 390 607 432 607 q 332 587 359 607 l 332 715 q 409 749 366 737 q 500 761 453 761 q 705 504 705 761 l 705 257 q 653 48 705 114 q 489 -17 601 -17 q 332 25 390 -17 l 332 158 q 383 138 353 138 "},"à":{"x_min":54,"x_max":749.578125,"ha":793,"o":"m 491 539 q 423 605 491 605 q 344 587 371 605 q 317 530 317 570 l 91 530 q 424 769 91 769 q 721 541 721 769 l 721 305 q 749 0 721 51 l 525 0 q 498 47 505 22 q 491 105 491 73 l 491 539 m 54 217 q 147 405 54 335 q 445 503 240 475 l 445 357 q 324 309 363 338 q 285 244 285 280 q 345 154 285 154 q 401 156 377 154 q 445 165 425 158 l 445 23 q 314 -10 393 -10 q 54 217 54 -10 m 184 993 l 436 993 l 563 841 l 430 841 l 184 993 "},"Ü":{"x_min":65,"x_max":830,"ha":895,"o":"m 422 -17 q 65 308 65 -17 l 65 1099 l 318 1099 l 318 273 q 422 155 318 166 l 422 -17 m 466 155 q 547 187 519 160 q 575 273 575 214 l 575 1099 l 830 1099 l 830 305 q 466 -18 830 -18 l 466 155 m 216 1342 l 396 1342 l 396 1189 l 216 1189 l 216 1342 m 495 1342 l 679 1342 l 679 1189 l 495 1189 l 495 1342 "},"ó":{"x_min":60,"x_max":702.3125,"ha":761,"o":"m 702 252 q 397 -13 702 -13 l 397 147 q 475 244 475 159 l 475 517 q 397 605 475 596 l 397 766 q 702 507 702 766 l 702 252 m 289 241 q 369 147 289 147 l 369 -15 q 60 255 60 -15 l 60 510 q 369 769 60 769 l 369 606 q 289 517 289 599 l 289 241 m 204 841 l 325 994 l 608 994 l 367 841 l 204 841 "}}}
